STARTFONT 2.1
COMMENT banner.flf version 2 by Ryan Youck (youck@cs.uregina.ca)
COMMENT (From a unix program called banner)
COMMENT I am not responsible for use of this font
COMMENT Thanks to Glenn Chappell for his help
COMMENT Katakana characters by Vinney Thai <ssfiit@eris.cs.umb.edu>
COMMENT Cyrillic characters from "koi8x8" BDF font.
COMMENT Date: August 11, 1994
COMMENT Merged by John Cowan <cowan@ccil.org>
COMMENT Modified by Paul Burton <solution@earthlink.net> 12/96 to include new parameter
COMMENT supported by FIGlet and FIGWin.  May also be slightly modified for better use
COMMENT of new full-width/kern/smush alternatives, but default output is NOT changed.
FONT --Banner-Regular-R-Normal--8-80-72-72-P-88-ISO10646-1
SIZE 8 72 72
FONTBOUNDINGBOX 11 8 1 -1
METRICSSET 2
STARTPROPERTIES 19
FONT_ASCENT 7
FONT_DESCENT 1
PIXEL_SIZE 8
RESOLUTION_X 72
RESOLUTION_Y 72
POINT_SIZE 80
FACE_NAME "FIGlet Banner"
FOUNDRY ""
FAMILY_NAME "Banner"
WEIGHT_NAME "Regular"
RELATIVE_WEIGHT 50
SLANT "R"
SPACING "P"
SETWIDTH_NAME "Normal"
RELATIVE_SETWIDTH 50
ADD_STYLE_NAME ""
AVERAGE_WIDTH 88
CHARSET_REGISTRY "ISO10646"
CHARSET_ENCODING "1"
ENDPROPERTIES
CHARS 285
STARTCHAR space
ENCODING 32
SWIDTH 500 0
DWIDTH 4 0
BBX 0 0 4 7
VVECTOR 6 7
SWIDTH1 0 -1000
DWIDTH1 0 -8
BITMAP 
ENDCHAR
STARTCHAR exclam
ENCODING 33
SWIDTH 625 0
DWIDTH 5 0
BBX 3 7 1 0
VVECTOR 3 7
SWIDTH1 0 -1000
DWIDTH1 0 -8
BITMAP 
E0
E0
E0
40
00
E0
E0
ENDCHAR
STARTCHAR quotedbl
ENCODING 34
SWIDTH 1125 0
DWIDTH 9 0
BBX 7 3 1 4
VVECTOR 5 7
SWIDTH1 0 -1000
DWIDTH1 0 -8
BITMAP 
EE
EE
44
ENDCHAR
STARTCHAR numbersign
ENCODING 35
SWIDTH 1125 0
DWIDTH 9 0
BBX 7 7 1 0
VVECTOR 5 7
SWIDTH1 0 -1000
DWIDTH1 0 -8
BITMAP 
28
28
FE
28
FE
28
28
ENDCHAR
STARTCHAR dollar
ENCODING 36
SWIDTH 1125 0
DWIDTH 9 0
BBX 7 7 1 0
VVECTOR 5 7
SWIDTH1 0 -1000
DWIDTH1 0 -8
BITMAP 
7C
92
90
7C
12
92
7C
ENDCHAR
STARTCHAR percent
ENCODING 37
SWIDTH 1125 0
DWIDTH 9 0
BBX 7 7 1 0
VVECTOR 5 7
SWIDTH1 0 -1000
DWIDTH1 0 -8
BITMAP 
E2
A4
E8
10
2E
4A
8E
ENDCHAR
STARTCHAR ampersand
ENCODING 38
SWIDTH 1125 0
DWIDTH 9 0
BBX 7 7 1 0
VVECTOR 5 7
SWIDTH1 0 -1000
DWIDTH1 0 -8
BITMAP 
30
48
30
70
8A
84
72
ENDCHAR
STARTCHAR quotesingle
ENCODING 39
SWIDTH 625 0
DWIDTH 5 0
BBX 3 4 1 3
VVECTOR 3 7
SWIDTH1 0 -1000
DWIDTH1 0 -8
BITMAP 
E0
E0
40
80
ENDCHAR
STARTCHAR parenleft
ENCODING 40
SWIDTH 750 0
DWIDTH 6 0
BBX 4 7 1 0
VVECTOR 3 7
SWIDTH1 0 -1000
DWIDTH1 0 -8
BITMAP 
30
40
80
80
80
40
30
ENDCHAR
STARTCHAR parenright
ENCODING 41
SWIDTH 750 0
DWIDTH 6 0
BBX 4 7 1 0
VVECTOR 3 7
SWIDTH1 0 -1000
DWIDTH1 0 -8
BITMAP 
C0
20
10
10
10
20
C0
ENDCHAR
STARTCHAR asterisk
ENCODING 42
SWIDTH 1125 0
DWIDTH 9 0
BBX 7 5 1 1
VVECTOR 5 7
SWIDTH1 0 -1000
DWIDTH1 0 -8
BITMAP 
44
28
FE
28
44
ENDCHAR
STARTCHAR plus
ENCODING 43
SWIDTH 875 0
DWIDTH 7 0
BBX 5 5 1 1
VVECTOR 4 7
SWIDTH1 0 -1000
DWIDTH1 0 -8
BITMAP 
20
20
F8
20
20
ENDCHAR
STARTCHAR comma
ENCODING 44
SWIDTH 625 0
DWIDTH 5 0
BBX 3 4 1 -1
VVECTOR 3 7
SWIDTH1 0 -1000
DWIDTH1 0 -8
BITMAP 
E0
E0
40
80
ENDCHAR
STARTCHAR hyphen
ENCODING 45
SWIDTH 875 0
DWIDTH 7 0
BBX 5 1 1 3
VVECTOR 4 7
SWIDTH1 0 -1000
DWIDTH1 0 -8
BITMAP 
F8
ENDCHAR
STARTCHAR period
ENCODING 46
SWIDTH 625 0
DWIDTH 5 0
BBX 3 3 1 0
VVECTOR 3 7
SWIDTH1 0 -1000
DWIDTH1 0 -8
BITMAP 
E0
E0
E0
ENDCHAR
STARTCHAR slash
ENCODING 47
SWIDTH 1125 0
DWIDTH 9 0
BBX 7 7 1 0
VVECTOR 5 7
SWIDTH1 0 -1000
DWIDTH1 0 -8
BITMAP 
02
04
08
10
20
40
80
ENDCHAR
STARTCHAR zero
ENCODING 48
SWIDTH 1125 0
DWIDTH 9 0
BBX 7 7 1 0
VVECTOR 5 7
SWIDTH1 0 -1000
DWIDTH1 0 -8
BITMAP 
38
44
82
82
82
44
38
ENDCHAR
STARTCHAR one
ENCODING 49
SWIDTH 875 0
DWIDTH 7 0
BBX 5 7 1 0
VVECTOR 4 7
SWIDTH1 0 -1000
DWIDTH1 0 -8
BITMAP 
20
60
A0
20
20
20
F8
ENDCHAR
STARTCHAR two
ENCODING 50
SWIDTH 1125 0
DWIDTH 9 0
BBX 7 7 1 0
VVECTOR 5 7
SWIDTH1 0 -1000
DWIDTH1 0 -8
BITMAP 
7C
82
02
7C
80
80
FE
ENDCHAR
STARTCHAR three
ENCODING 51
SWIDTH 1125 0
DWIDTH 9 0
BBX 7 7 1 0
VVECTOR 5 7
SWIDTH1 0 -1000
DWIDTH1 0 -8
BITMAP 
7C
82
02
7C
02
82
7C
ENDCHAR
STARTCHAR four
ENCODING 52
SWIDTH 1125 0
DWIDTH 9 0
BBX 7 7 1 0
VVECTOR 5 7
SWIDTH1 0 -1000
DWIDTH1 0 -8
BITMAP 
80
84
84
84
FE
04
04
ENDCHAR
STARTCHAR five
ENCODING 53
SWIDTH 1125 0
DWIDTH 9 0
BBX 7 7 1 0
VVECTOR 5 7
SWIDTH1 0 -1000
DWIDTH1 0 -8
BITMAP 
FE
80
80
FC
02
82
7C
ENDCHAR
STARTCHAR six
ENCODING 54
SWIDTH 1125 0
DWIDTH 9 0
BBX 7 7 1 0
VVECTOR 5 7
SWIDTH1 0 -1000
DWIDTH1 0 -8
BITMAP 
7C
82
80
FC
82
82
7C
ENDCHAR
STARTCHAR seven
ENCODING 55
SWIDTH 1125 0
DWIDTH 9 0
BBX 7 7 1 0
VVECTOR 5 7
SWIDTH1 0 -1000
DWIDTH1 0 -8
BITMAP 
FE
84
08
10
20
20
20
ENDCHAR
STARTCHAR eight
ENCODING 56
SWIDTH 1125 0
DWIDTH 9 0
BBX 7 7 1 0
VVECTOR 5 7
SWIDTH1 0 -1000
DWIDTH1 0 -8
BITMAP 
7C
82
82
7C
82
82
7C
ENDCHAR
STARTCHAR nine
ENCODING 57
SWIDTH 1125 0
DWIDTH 9 0
BBX 7 7 1 0
VVECTOR 5 7
SWIDTH1 0 -1000
DWIDTH1 0 -8
BITMAP 
7C
82
82
7E
02
82
7C
ENDCHAR
STARTCHAR colon
ENCODING 58
SWIDTH 625 0
DWIDTH 5 0
BBX 3 7 1 0
VVECTOR 3 7
SWIDTH1 0 -1000
DWIDTH1 0 -8
BITMAP 
40
E0
40
00
40
E0
40
ENDCHAR
STARTCHAR semicolon
ENCODING 59
SWIDTH 625 0
DWIDTH 5 0
BBX 3 7 1 -1
VVECTOR 3 7
SWIDTH1 0 -1000
DWIDTH1 0 -8
BITMAP 
E0
E0
00
E0
E0
40
80
ENDCHAR
STARTCHAR less
ENCODING 60
SWIDTH 750 0
DWIDTH 6 0
BBX 4 7 1 0
VVECTOR 3 7
SWIDTH1 0 -1000
DWIDTH1 0 -8
BITMAP 
10
20
40
80
40
20
10
ENDCHAR
STARTCHAR equal
ENCODING 61
SWIDTH 875 0
DWIDTH 7 0
BBX 5 3 1 2
VVECTOR 4 7
SWIDTH1 0 -1000
DWIDTH1 0 -8
BITMAP 
F8
00
F8
ENDCHAR
STARTCHAR greater
ENCODING 62
SWIDTH 750 0
DWIDTH 6 0
BBX 4 7 1 0
VVECTOR 3 7
SWIDTH1 0 -1000
DWIDTH1 0 -8
BITMAP 
80
40
20
10
20
40
80
ENDCHAR
STARTCHAR question
ENCODING 63
SWIDTH 1125 0
DWIDTH 9 0
BBX 7 7 1 0
VVECTOR 5 7
SWIDTH1 0 -1000
DWIDTH1 0 -8
BITMAP 
7C
82
02
1C
10
00
10
ENDCHAR
STARTCHAR at
ENCODING 64
SWIDTH 1125 0
DWIDTH 9 0
BBX 7 7 1 0
VVECTOR 5 7
SWIDTH1 0 -1000
DWIDTH1 0 -8
BITMAP 
7C
82
BA
BA
BC
80
7C
ENDCHAR
STARTCHAR A
ENCODING 65
SWIDTH 1125 0
DWIDTH 9 0
BBX 7 7 1 0
VVECTOR 5 7
SWIDTH1 0 -1000
DWIDTH1 0 -8
BITMAP 
10
28
44
82
FE
82
82
ENDCHAR
STARTCHAR B
ENCODING 66
SWIDTH 1125 0
DWIDTH 9 0
BBX 7 7 1 0
VVECTOR 5 7
SWIDTH1 0 -1000
DWIDTH1 0 -8
BITMAP 
FC
82
82
FC
82
82
FC
ENDCHAR
STARTCHAR C
ENCODING 67
SWIDTH 1125 0
DWIDTH 9 0
BBX 7 7 1 0
VVECTOR 5 7
SWIDTH1 0 -1000
DWIDTH1 0 -8
BITMAP 
7C
82
80
80
80
82
7C
ENDCHAR
STARTCHAR D
ENCODING 68
SWIDTH 1125 0
DWIDTH 9 0
BBX 7 7 1 0
VVECTOR 5 7
SWIDTH1 0 -1000
DWIDTH1 0 -8
BITMAP 
FC
82
82
82
82
82
FC
ENDCHAR
STARTCHAR E
ENCODING 69
SWIDTH 1125 0
DWIDTH 9 0
BBX 7 7 1 0
VVECTOR 5 7
SWIDTH1 0 -1000
DWIDTH1 0 -8
BITMAP 
FE
80
80
F8
80
80
FE
ENDCHAR
STARTCHAR F
ENCODING 70
SWIDTH 1125 0
DWIDTH 9 0
BBX 7 7 1 0
VVECTOR 5 7
SWIDTH1 0 -1000
DWIDTH1 0 -8
BITMAP 
FE
80
80
F8
80
80
80
ENDCHAR
STARTCHAR G
ENCODING 71
SWIDTH 1125 0
DWIDTH 9 0
BBX 7 7 1 0
VVECTOR 5 7
SWIDTH1 0 -1000
DWIDTH1 0 -8
BITMAP 
7C
82
80
9E
82
82
7C
ENDCHAR
STARTCHAR H
ENCODING 72
SWIDTH 1125 0
DWIDTH 9 0
BBX 7 7 1 0
VVECTOR 5 7
SWIDTH1 0 -1000
DWIDTH1 0 -8
BITMAP 
82
82
82
FE
82
82
82
ENDCHAR
STARTCHAR I
ENCODING 73
SWIDTH 625 0
DWIDTH 5 0
BBX 3 7 1 0
VVECTOR 3 7
SWIDTH1 0 -1000
DWIDTH1 0 -8
BITMAP 
E0
40
40
40
40
40
E0
ENDCHAR
STARTCHAR J
ENCODING 74
SWIDTH 1125 0
DWIDTH 9 0
BBX 7 7 1 0
VVECTOR 5 7
SWIDTH1 0 -1000
DWIDTH1 0 -8
BITMAP 
02
02
02
02
82
82
7C
ENDCHAR
STARTCHAR K
ENCODING 75
SWIDTH 1000 0
DWIDTH 8 0
BBX 6 7 1 0
VVECTOR 4 7
SWIDTH1 0 -1000
DWIDTH1 0 -8
BITMAP 
84
88
90
E0
90
88
84
ENDCHAR
STARTCHAR L
ENCODING 76
SWIDTH 1125 0
DWIDTH 9 0
BBX 7 7 1 0
VVECTOR 5 7
SWIDTH1 0 -1000
DWIDTH1 0 -8
BITMAP 
80
80
80
80
80
80
FE
ENDCHAR
STARTCHAR M
ENCODING 77
SWIDTH 1125 0
DWIDTH 9 0
BBX 7 7 1 0
VVECTOR 5 7
SWIDTH1 0 -1000
DWIDTH1 0 -8
BITMAP 
82
C6
AA
92
82
82
82
ENDCHAR
STARTCHAR N
ENCODING 78
SWIDTH 1125 0
DWIDTH 9 0
BBX 7 7 1 0
VVECTOR 5 7
SWIDTH1 0 -1000
DWIDTH1 0 -8
BITMAP 
82
C2
A2
92
8A
86
82
ENDCHAR
STARTCHAR O
ENCODING 79
SWIDTH 1125 0
DWIDTH 9 0
BBX 7 7 1 0
VVECTOR 5 7
SWIDTH1 0 -1000
DWIDTH1 0 -8
BITMAP 
FE
82
82
82
82
82
FE
ENDCHAR
STARTCHAR P
ENCODING 80
SWIDTH 1125 0
DWIDTH 9 0
BBX 7 7 1 0
VVECTOR 5 7
SWIDTH1 0 -1000
DWIDTH1 0 -8
BITMAP 
FC
82
82
FC
80
80
80
ENDCHAR
STARTCHAR Q
ENCODING 81
SWIDTH 1125 0
DWIDTH 9 0
BBX 7 7 1 0
VVECTOR 5 7
SWIDTH1 0 -1000
DWIDTH1 0 -8
BITMAP 
7C
82
82
82
8A
84
7A
ENDCHAR
STARTCHAR R
ENCODING 82
SWIDTH 1125 0
DWIDTH 9 0
BBX 7 7 1 0
VVECTOR 5 7
SWIDTH1 0 -1000
DWIDTH1 0 -8
BITMAP 
FC
82
82
FC
88
84
82
ENDCHAR
STARTCHAR S
ENCODING 83
SWIDTH 1125 0
DWIDTH 9 0
BBX 7 7 1 0
VVECTOR 5 7
SWIDTH1 0 -1000
DWIDTH1 0 -8
BITMAP 
7C
82
80
7C
02
82
7C
ENDCHAR
STARTCHAR T
ENCODING 84
SWIDTH 1125 0
DWIDTH 9 0
BBX 7 7 1 0
VVECTOR 5 7
SWIDTH1 0 -1000
DWIDTH1 0 -8
BITMAP 
FE
10
10
10
10
10
10
ENDCHAR
STARTCHAR U
ENCODING 85
SWIDTH 1125 0
DWIDTH 9 0
BBX 7 7 1 0
VVECTOR 5 7
SWIDTH1 0 -1000
DWIDTH1 0 -8
BITMAP 
82
82
82
82
82
82
7C
ENDCHAR
STARTCHAR V
ENCODING 86
SWIDTH 1125 0
DWIDTH 9 0
BBX 7 7 1 0
VVECTOR 5 7
SWIDTH1 0 -1000
DWIDTH1 0 -8
BITMAP 
82
82
82
82
44
28
10
ENDCHAR
STARTCHAR W
ENCODING 87
SWIDTH 1125 0
DWIDTH 9 0
BBX 7 7 1 0
VVECTOR 5 7
SWIDTH1 0 -1000
DWIDTH1 0 -8
BITMAP 
82
92
92
92
92
92
6C
ENDCHAR
STARTCHAR X
ENCODING 88
SWIDTH 1125 0
DWIDTH 9 0
BBX 7 7 1 0
VVECTOR 5 7
SWIDTH1 0 -1000
DWIDTH1 0 -8
BITMAP 
82
44
28
10
28
44
82
ENDCHAR
STARTCHAR Y
ENCODING 89
SWIDTH 1125 0
DWIDTH 9 0
BBX 7 7 1 0
VVECTOR 5 7
SWIDTH1 0 -1000
DWIDTH1 0 -8
BITMAP 
82
44
28
10
10
10
10
ENDCHAR
STARTCHAR Z
ENCODING 90
SWIDTH 1125 0
DWIDTH 9 0
BBX 7 7 1 0
VVECTOR 5 7
SWIDTH1 0 -1000
DWIDTH1 0 -8
BITMAP 
FE
04
08
10
20
40
FE
ENDCHAR
STARTCHAR bracketleft
ENCODING 91
SWIDTH 875 0
DWIDTH 7 0
BBX 5 7 1 0
VVECTOR 4 7
SWIDTH1 0 -1000
DWIDTH1 0 -8
BITMAP 
F8
80
80
80
80
80
F8
ENDCHAR
STARTCHAR backslash
ENCODING 92
SWIDTH 1125 0
DWIDTH 9 0
BBX 7 7 1 0
VVECTOR 5 7
SWIDTH1 0 -1000
DWIDTH1 0 -8
BITMAP 
80
40
20
10
08
04
02
ENDCHAR
STARTCHAR bracketright
ENCODING 93
SWIDTH 875 0
DWIDTH 7 0
BBX 5 7 1 0
VVECTOR 4 7
SWIDTH1 0 -1000
DWIDTH1 0 -8
BITMAP 
F8
08
08
08
08
08
F8
ENDCHAR
STARTCHAR asciicircum
ENCODING 94
SWIDTH 875 0
DWIDTH 7 0
BBX 5 3 1 4
VVECTOR 4 7
SWIDTH1 0 -1000
DWIDTH1 0 -8
BITMAP 
20
50
88
ENDCHAR
STARTCHAR underscore
ENCODING 95
SWIDTH 1125 0
DWIDTH 9 0
BBX 7 1 1 -1
VVECTOR 5 7
SWIDTH1 0 -1000
DWIDTH1 0 -8
BITMAP 
FE
ENDCHAR
STARTCHAR grave
ENCODING 96
SWIDTH 625 0
DWIDTH 5 0
BBX 3 4 1 3
VVECTOR 3 7
SWIDTH1 0 -1000
DWIDTH1 0 -8
BITMAP 
E0
E0
40
20
ENDCHAR
STARTCHAR a
ENCODING 97
SWIDTH 1000 0
DWIDTH 8 0
BBX 6 6 1 0
VVECTOR 4 7
SWIDTH1 0 -1000
DWIDTH1 0 -8
BITMAP 
30
48
84
FC
84
84
ENDCHAR
STARTCHAR b
ENCODING 98
SWIDTH 1000 0
DWIDTH 8 0
BBX 6 6 1 0
VVECTOR 4 7
SWIDTH1 0 -1000
DWIDTH1 0 -8
BITMAP 
F8
84
F8
84
84
F8
ENDCHAR
STARTCHAR c
ENCODING 99
SWIDTH 1000 0
DWIDTH 8 0
BBX 6 6 1 0
VVECTOR 4 7
SWIDTH1 0 -1000
DWIDTH1 0 -8
BITMAP 
78
84
80
80
84
78
ENDCHAR
STARTCHAR d
ENCODING 100
SWIDTH 1000 0
DWIDTH 8 0
BBX 6 6 1 0
VVECTOR 4 7
SWIDTH1 0 -1000
DWIDTH1 0 -8
BITMAP 
F8
84
84
84
84
F8
ENDCHAR
STARTCHAR e
ENCODING 101
SWIDTH 1000 0
DWIDTH 8 0
BBX 6 6 1 0
VVECTOR 4 7
SWIDTH1 0 -1000
DWIDTH1 0 -8
BITMAP 
FC
80
F8
80
80
FC
ENDCHAR
STARTCHAR f
ENCODING 102
SWIDTH 1000 0
DWIDTH 8 0
BBX 6 6 1 0
VVECTOR 4 7
SWIDTH1 0 -1000
DWIDTH1 0 -8
BITMAP 
FC
80
F8
80
80
80
ENDCHAR
STARTCHAR g
ENCODING 103
SWIDTH 1000 0
DWIDTH 8 0
BBX 6 6 1 0
VVECTOR 4 7
SWIDTH1 0 -1000
DWIDTH1 0 -8
BITMAP 
78
84
80
9C
84
78
ENDCHAR
STARTCHAR h
ENCODING 104
SWIDTH 1000 0
DWIDTH 8 0
BBX 6 6 1 0
VVECTOR 4 7
SWIDTH1 0 -1000
DWIDTH1 0 -8
BITMAP 
84
84
FC
84
84
84
ENDCHAR
STARTCHAR i
ENCODING 105
SWIDTH 375 0
DWIDTH 3 0
BBX 1 6 1 0
VVECTOR 2 7
SWIDTH1 0 -1000
DWIDTH1 0 -8
BITMAP 
80
80
80
80
80
80
ENDCHAR
STARTCHAR j
ENCODING 106
SWIDTH 1000 0
DWIDTH 8 0
BBX 6 6 1 0
VVECTOR 4 7
SWIDTH1 0 -1000
DWIDTH1 0 -8
BITMAP 
04
04
04
04
84
78
ENDCHAR
STARTCHAR k
ENCODING 107
SWIDTH 1000 0
DWIDTH 8 0
BBX 6 6 1 0
VVECTOR 4 7
SWIDTH1 0 -1000
DWIDTH1 0 -8
BITMAP 
84
88
F0
90
88
84
ENDCHAR
STARTCHAR l
ENCODING 108
SWIDTH 1000 0
DWIDTH 8 0
BBX 6 6 1 0
VVECTOR 4 7
SWIDTH1 0 -1000
DWIDTH1 0 -8
BITMAP 
80
80
80
80
80
FC
ENDCHAR
STARTCHAR m
ENCODING 109
SWIDTH 1000 0
DWIDTH 8 0
BBX 6 6 1 0
VVECTOR 4 7
SWIDTH1 0 -1000
DWIDTH1 0 -8
BITMAP 
84
CC
B4
84
84
84
ENDCHAR
STARTCHAR n
ENCODING 110
SWIDTH 1000 0
DWIDTH 8 0
BBX 6 6 1 0
VVECTOR 4 7
SWIDTH1 0 -1000
DWIDTH1 0 -8
BITMAP 
84
C4
A4
94
8C
84
ENDCHAR
STARTCHAR o
ENCODING 111
SWIDTH 1000 0
DWIDTH 8 0
BBX 6 6 1 0
VVECTOR 4 7
SWIDTH1 0 -1000
DWIDTH1 0 -8
BITMAP 
78
84
84
84
84
78
ENDCHAR
STARTCHAR p
ENCODING 112
SWIDTH 1000 0
DWIDTH 8 0
BBX 6 6 1 0
VVECTOR 4 7
SWIDTH1 0 -1000
DWIDTH1 0 -8
BITMAP 
F8
84
84
F8
80
80
ENDCHAR
STARTCHAR q
ENCODING 113
SWIDTH 1000 0
DWIDTH 8 0
BBX 6 6 1 0
VVECTOR 4 7
SWIDTH1 0 -1000
DWIDTH1 0 -8
BITMAP 
78
84
84
94
88
74
ENDCHAR
STARTCHAR r
ENCODING 114
SWIDTH 1000 0
DWIDTH 8 0
BBX 6 6 1 0
VVECTOR 4 7
SWIDTH1 0 -1000
DWIDTH1 0 -8
BITMAP 
F8
84
84
F8
88
84
ENDCHAR
STARTCHAR s
ENCODING 115
SWIDTH 1000 0
DWIDTH 8 0
BBX 6 6 1 0
VVECTOR 4 7
SWIDTH1 0 -1000
DWIDTH1 0 -8
BITMAP 
78
80
78
04
84
78
ENDCHAR
STARTCHAR t
ENCODING 116
SWIDTH 875 0
DWIDTH 7 0
BBX 5 6 1 0
VVECTOR 4 7
SWIDTH1 0 -1000
DWIDTH1 0 -8
BITMAP 
F8
20
20
20
20
20
ENDCHAR
STARTCHAR u
ENCODING 117
SWIDTH 1000 0
DWIDTH 8 0
BBX 6 6 1 0
VVECTOR 4 7
SWIDTH1 0 -1000
DWIDTH1 0 -8
BITMAP 
84
84
84
84
84
78
ENDCHAR
STARTCHAR v
ENCODING 118
SWIDTH 1000 0
DWIDTH 8 0
BBX 6 6 1 0
VVECTOR 4 7
SWIDTH1 0 -1000
DWIDTH1 0 -8
BITMAP 
84
84
84
84
48
30
ENDCHAR
STARTCHAR w
ENCODING 119
SWIDTH 1000 0
DWIDTH 8 0
BBX 6 6 1 0
VVECTOR 4 7
SWIDTH1 0 -1000
DWIDTH1 0 -8
BITMAP 
84
84
84
B4
CC
84
ENDCHAR
STARTCHAR x
ENCODING 120
SWIDTH 1000 0
DWIDTH 8 0
BBX 6 6 1 0
VVECTOR 4 7
SWIDTH1 0 -1000
DWIDTH1 0 -8
BITMAP 
84
48
30
30
48
84
ENDCHAR
STARTCHAR y
ENCODING 121
SWIDTH 875 0
DWIDTH 7 0
BBX 5 6 1 0
VVECTOR 4 7
SWIDTH1 0 -1000
DWIDTH1 0 -8
BITMAP 
88
50
20
20
20
20
ENDCHAR
STARTCHAR z
ENCODING 122
SWIDTH 1000 0
DWIDTH 8 0
BBX 6 6 1 0
VVECTOR 4 7
SWIDTH1 0 -1000
DWIDTH1 0 -8
BITMAP 
FC
08
10
20
40
FC
ENDCHAR
STARTCHAR braceleft
ENCODING 123
SWIDTH 875 0
DWIDTH 7 0
BBX 5 7 1 0
VVECTOR 4 7
SWIDTH1 0 -1000
DWIDTH1 0 -8
BITMAP 
38
40
40
C0
40
40
38
ENDCHAR
STARTCHAR bar
ENCODING 124
SWIDTH 375 0
DWIDTH 3 0
BBX 1 7 1 0
VVECTOR 2 7
SWIDTH1 0 -1000
DWIDTH1 0 -8
BITMAP 
80
80
80
00
80
80
80
ENDCHAR
STARTCHAR braceright
ENCODING 125
SWIDTH 875 0
DWIDTH 7 0
BBX 5 7 1 0
VVECTOR 4 7
SWIDTH1 0 -1000
DWIDTH1 0 -8
BITMAP 
E0
10
10
18
10
10
E0
ENDCHAR
STARTCHAR asciitilde
ENCODING 126
SWIDTH 1125 0
DWIDTH 9 0
BBX 7 3 1 4
VVECTOR 5 7
SWIDTH1 0 -1000
DWIDTH1 0 -8
BITMAP 
60
92
0C
ENDCHAR
STARTCHAR Adieresis
ENCODING 196
SWIDTH 1125 0
DWIDTH 9 0
BBX 7 7 1 0
VVECTOR 5 7
SWIDTH1 0 -1000
DWIDTH1 0 -8
BITMAP 
92
28
44
82
FE
82
82
ENDCHAR
STARTCHAR Odieresis
ENCODING 214
SWIDTH 1125 0
DWIDTH 9 0
BBX 7 7 1 0
VVECTOR 5 7
SWIDTH1 0 -1000
DWIDTH1 0 -8
BITMAP 
82
7C
82
82
82
82
7C
ENDCHAR
STARTCHAR Udieresis
ENCODING 220
SWIDTH 1125 0
DWIDTH 9 0
BBX 7 7 1 0
VVECTOR 5 7
SWIDTH1 0 -1000
DWIDTH1 0 -8
BITMAP 
82
00
82
82
82
82
7C
ENDCHAR
STARTCHAR adieresis
ENCODING 228
SWIDTH 1000 0
DWIDTH 8 0
BBX 6 6 1 0
VVECTOR 4 7
SWIDTH1 0 -1000
DWIDTH1 0 -8
BITMAP 
84
78
84
FC
84
84
ENDCHAR
STARTCHAR odieresis
ENCODING 246
SWIDTH 1000 0
DWIDTH 8 0
BBX 6 6 1 0
VVECTOR 4 7
SWIDTH1 0 -1000
DWIDTH1 0 -8
BITMAP 
84
78
84
84
84
78
ENDCHAR
STARTCHAR udieresis
ENCODING 252
SWIDTH 1000 0
DWIDTH 8 0
BBX 6 6 1 0
VVECTOR 4 7
SWIDTH1 0 -1000
DWIDTH1 0 -8
BITMAP 
84
00
84
84
84
78
ENDCHAR
STARTCHAR germandbls
ENCODING 223
SWIDTH 1125 0
DWIDTH 9 0
BBX 7 8 1 -1
VVECTOR 5 7
SWIDTH1 0 -1000
DWIDTH1 0 -8
BITMAP 
FC
82
82
FC
82
82
FC
80
ENDCHAR
STARTCHAR uni00A0
ENCODING 160
SWIDTH 1250 0
DWIDTH 10 0
BBX 8 4 1 -1
VVECTOR 5 7
SWIDTH1 0 -1000
DWIDTH1 0 -8
BITMAP 
FF
18
18
18
ENDCHAR
STARTCHAR copyright
ENCODING 169
SWIDTH 250 0
DWIDTH 2 0
BBX 0 0 2 7
VVECTOR 3 7
SWIDTH1 0 -1000
DWIDTH1 0 -8
BITMAP 
ENDCHAR
STARTCHAR degree
ENCODING 176
SWIDTH 1250 0
DWIDTH 10 0
BBX 8 1 1 2
VVECTOR 5 7
SWIDTH1 0 -1000
DWIDTH1 0 -8
BITMAP 
FF
ENDCHAR
STARTCHAR uni00B2
ENCODING 178
SWIDTH 1250 0
DWIDTH 10 0
BBX 8 8 1 -1
VVECTOR 5 7
SWIDTH1 0 -1000
DWIDTH1 0 -8
BITMAP 
18
18
18
18
FF
18
18
18
ENDCHAR
STARTCHAR periodcentered
ENCODING 183
SWIDTH 875 0
DWIDTH 7 0
BBX 5 8 1 -1
VVECTOR 4 7
SWIDTH1 0 -1000
DWIDTH1 0 -8
BITMAP 
C0
C0
F8
C0
F8
C0
C0
C0
ENDCHAR
STARTCHAR Adieresis
ENCODING 196
SWIDTH 1125 0
DWIDTH 9 0
BBX 7 7 1 0
VVECTOR 5 7
SWIDTH1 0 -1000
DWIDTH1 0 -8
BITMAP 
92
28
44
82
FE
82
82
ENDCHAR
STARTCHAR Odieresis
ENCODING 214
SWIDTH 1125 0
DWIDTH 9 0
BBX 7 7 1 0
VVECTOR 5 7
SWIDTH1 0 -1000
DWIDTH1 0 -8
BITMAP 
82
7C
82
82
82
82
7C
ENDCHAR
STARTCHAR Udieresis
ENCODING 220
SWIDTH 1125 0
DWIDTH 9 0
BBX 7 7 1 0
VVECTOR 5 7
SWIDTH1 0 -1000
DWIDTH1 0 -8
BITMAP 
82
00
82
82
82
82
7C
ENDCHAR
STARTCHAR germandbls
ENCODING 223
SWIDTH 1125 0
DWIDTH 9 0
BBX 7 8 1 -1
VVECTOR 5 7
SWIDTH1 0 -1000
DWIDTH1 0 -8
BITMAP 
FC
82
82
FC
82
82
FC
80
ENDCHAR
STARTCHAR adieresis
ENCODING 228
SWIDTH 1000 0
DWIDTH 8 0
BBX 6 6 1 0
VVECTOR 4 7
SWIDTH1 0 -1000
DWIDTH1 0 -8
BITMAP 
84
78
84
FC
84
84
ENDCHAR
STARTCHAR odieresis
ENCODING 246
SWIDTH 1000 0
DWIDTH 8 0
BBX 6 6 1 0
VVECTOR 4 7
SWIDTH1 0 -1000
DWIDTH1 0 -8
BITMAP 
84
78
84
84
84
78
ENDCHAR
STARTCHAR divide
ENCODING 247
SWIDTH 875 0
DWIDTH 7 0
BBX 5 8 1 -1
VVECTOR 4 7
SWIDTH1 0 -1000
DWIDTH1 0 -8
BITMAP 
F0
F0
F0
F0
F8
F0
F0
F0
ENDCHAR
STARTCHAR udieresis
ENCODING 252
SWIDTH 1000 0
DWIDTH 8 0
BBX 6 6 1 0
VVECTOR 4 7
SWIDTH1 0 -1000
DWIDTH1 0 -8
BITMAP 
84
00
84
84
84
78
ENDCHAR
STARTCHAR uni0401
ENCODING 1025
SWIDTH 1250 0
DWIDTH 10 0
BBX 8 8 1 -1
VVECTOR 5 7
SWIDTH1 0 -1000
DWIDTH1 0 -8
BITMAP 
FF
FF
FF
FF
FF
FF
FF
FF
ENDCHAR
STARTCHAR uni0410
ENCODING 1040
SWIDTH 1125 0
DWIDTH 9 0
BBX 7 7 1 0
VVECTOR 5 7
SWIDTH1 0 -1000
DWIDTH1 0 -8
BITMAP 
1E
36
66
C6
FE
C6
C6
ENDCHAR
STARTCHAR uni0411
ENCODING 1041
SWIDTH 1125 0
DWIDTH 9 0
BBX 7 7 1 0
VVECTOR 5 7
SWIDTH1 0 -1000
DWIDTH1 0 -8
BITMAP 
FE
C0
C0
FC
C6
C6
FC
ENDCHAR
STARTCHAR uni0412
ENCODING 1042
SWIDTH 1125 0
DWIDTH 9 0
BBX 7 7 1 0
VVECTOR 5 7
SWIDTH1 0 -1000
DWIDTH1 0 -8
BITMAP 
FC
C6
C6
FC
C6
C6
FC
ENDCHAR
STARTCHAR uni0413
ENCODING 1043
SWIDTH 1125 0
DWIDTH 9 0
BBX 7 7 1 0
VVECTOR 5 7
SWIDTH1 0 -1000
DWIDTH1 0 -8
BITMAP 
FE
C0
C0
C0
C0
C0
C0
ENDCHAR
STARTCHAR uni0414
ENCODING 1044
SWIDTH 1125 0
DWIDTH 9 0
BBX 7 7 1 0
VVECTOR 5 7
SWIDTH1 0 -1000
DWIDTH1 0 -8
BITMAP 
3C
6C
6C
6C
6C
FE
C6
ENDCHAR
STARTCHAR uni0415
ENCODING 1045
SWIDTH 1125 0
DWIDTH 9 0
BBX 7 7 1 0
VVECTOR 5 7
SWIDTH1 0 -1000
DWIDTH1 0 -8
BITMAP 
FE
C0
C0
FC
C0
C0
FE
ENDCHAR
STARTCHAR uni0416
ENCODING 1046
SWIDTH 1125 0
DWIDTH 9 0
BBX 7 7 1 0
VVECTOR 5 7
SWIDTH1 0 -1000
DWIDTH1 0 -8
BITMAP 
D6
54
38
38
54
54
D6
ENDCHAR
STARTCHAR uni0417
ENCODING 1047
SWIDTH 1125 0
DWIDTH 9 0
BBX 7 7 1 0
VVECTOR 5 7
SWIDTH1 0 -1000
DWIDTH1 0 -8
BITMAP 
7C
C6
06
18
06
C6
7C
ENDCHAR
STARTCHAR uni0418
ENCODING 1048
SWIDTH 1125 0
DWIDTH 9 0
BBX 7 7 1 0
VVECTOR 5 7
SWIDTH1 0 -1000
DWIDTH1 0 -8
BITMAP 
C6
CE
CE
D6
E6
C6
C6
ENDCHAR
STARTCHAR uni0419
ENCODING 1049
SWIDTH 1125 0
DWIDTH 9 0
BBX 7 7 1 0
VVECTOR 5 7
SWIDTH1 0 -1000
DWIDTH1 0 -8
BITMAP 
DA
C6
CE
D6
E6
C6
C6
ENDCHAR
STARTCHAR uni041A
ENCODING 1050
SWIDTH 1125 0
DWIDTH 9 0
BBX 7 7 1 0
VVECTOR 5 7
SWIDTH1 0 -1000
DWIDTH1 0 -8
BITMAP 
C6
CC
D8
F8
CC
C6
C6
ENDCHAR
STARTCHAR uni041B
ENCODING 1051
SWIDTH 1125 0
DWIDTH 9 0
BBX 7 7 1 0
VVECTOR 5 7
SWIDTH1 0 -1000
DWIDTH1 0 -8
BITMAP 
3E
66
66
66
66
66
C6
ENDCHAR
STARTCHAR uni041C
ENCODING 1052
SWIDTH 1125 0
DWIDTH 9 0
BBX 7 7 1 0
VVECTOR 5 7
SWIDTH1 0 -1000
DWIDTH1 0 -8
BITMAP 
C6
C6
EE
D6
C6
C6
C6
ENDCHAR
STARTCHAR uni041D
ENCODING 1053
SWIDTH 1125 0
DWIDTH 9 0
BBX 7 7 1 0
VVECTOR 5 7
SWIDTH1 0 -1000
DWIDTH1 0 -8
BITMAP 
C6
C6
C6
FE
C6
C6
C6
ENDCHAR
STARTCHAR uni041E
ENCODING 1054
SWIDTH 1125 0
DWIDTH 9 0
BBX 7 7 1 0
VVECTOR 5 7
SWIDTH1 0 -1000
DWIDTH1 0 -8
BITMAP 
7C
C6
C6
C6
C6
C6
7C
ENDCHAR
STARTCHAR uni041F
ENCODING 1055
SWIDTH 1125 0
DWIDTH 9 0
BBX 7 7 1 0
VVECTOR 5 7
SWIDTH1 0 -1000
DWIDTH1 0 -8
BITMAP 
FE
C6
C6
C6
C6
C6
C6
ENDCHAR
STARTCHAR uni0420
ENCODING 1056
SWIDTH 1125 0
DWIDTH 9 0
BBX 7 7 1 0
VVECTOR 5 7
SWIDTH1 0 -1000
DWIDTH1 0 -8
BITMAP 
FC
C6
C6
FC
C0
C0
C0
ENDCHAR
STARTCHAR uni0421
ENCODING 1057
SWIDTH 1125 0
DWIDTH 9 0
BBX 7 7 1 0
VVECTOR 5 7
SWIDTH1 0 -1000
DWIDTH1 0 -8
BITMAP 
7C
C6
C0
C0
C0
C6
7C
ENDCHAR
STARTCHAR uni0422
ENCODING 1058
SWIDTH 1125 0
DWIDTH 9 0
BBX 6 7 1 0
VVECTOR 4 7
SWIDTH1 0 -1000
DWIDTH1 0 -8
BITMAP 
FC
30
30
30
30
30
30
ENDCHAR
STARTCHAR uni0423
ENCODING 1059
SWIDTH 1125 0
DWIDTH 9 0
BBX 7 7 1 0
VVECTOR 5 7
SWIDTH1 0 -1000
DWIDTH1 0 -8
BITMAP 
C6
C6
C6
7E
06
C6
7C
ENDCHAR
STARTCHAR uni0424
ENCODING 1060
SWIDTH 1125 0
DWIDTH 9 0
BBX 7 7 1 0
VVECTOR 5 7
SWIDTH1 0 -1000
DWIDTH1 0 -8
BITMAP 
10
7C
D6
D6
D6
7C
10
ENDCHAR
STARTCHAR uni0425
ENCODING 1061
SWIDTH 1125 0
DWIDTH 9 0
BBX 7 7 1 0
VVECTOR 5 7
SWIDTH1 0 -1000
DWIDTH1 0 -8
BITMAP 
C6
6C
38
38
38
6C
C6
ENDCHAR
STARTCHAR uni0426
ENCODING 1062
SWIDTH 1125 0
DWIDTH 9 0
BBX 7 8 1 -1
VVECTOR 5 7
SWIDTH1 0 -1000
DWIDTH1 0 -8
BITMAP 
CC
CC
CC
CC
CC
CC
FE
02
ENDCHAR
STARTCHAR uni0427
ENCODING 1063
SWIDTH 1125 0
DWIDTH 9 0
BBX 7 7 1 0
VVECTOR 5 7
SWIDTH1 0 -1000
DWIDTH1 0 -8
BITMAP 
C6
C6
C6
7E
06
06
06
ENDCHAR
STARTCHAR uni0428
ENCODING 1064
SWIDTH 1125 0
DWIDTH 9 0
BBX 7 7 1 0
VVECTOR 5 7
SWIDTH1 0 -1000
DWIDTH1 0 -8
BITMAP 
D6
D6
D6
D6
D6
D6
FE
ENDCHAR
STARTCHAR uni0429
ENCODING 1065
SWIDTH 1125 0
DWIDTH 9 0
BBX 7 8 1 -1
VVECTOR 5 7
SWIDTH1 0 -1000
DWIDTH1 0 -8
BITMAP 
D6
D6
D6
D6
D6
D6
FE
02
ENDCHAR
STARTCHAR uni042A
ENCODING 1066
SWIDTH 1125 0
DWIDTH 9 0
BBX 7 7 1 0
VVECTOR 5 7
SWIDTH1 0 -1000
DWIDTH1 0 -8
BITMAP 
E0
E0
60
7C
66
66
7C
ENDCHAR
STARTCHAR uni042B
ENCODING 1067
SWIDTH 1125 0
DWIDTH 9 0
BBX 7 7 1 0
VVECTOR 5 7
SWIDTH1 0 -1000
DWIDTH1 0 -8
BITMAP 
C6
C6
C6
F2
CA
CA
F2
ENDCHAR
STARTCHAR uni042C
ENCODING 1068
SWIDTH 1125 0
DWIDTH 9 0
BBX 7 7 1 0
VVECTOR 5 7
SWIDTH1 0 -1000
DWIDTH1 0 -8
BITMAP 
C0
C0
C0
FC
C6
C6
FC
ENDCHAR
STARTCHAR uni042D
ENCODING 1069
SWIDTH 1125 0
DWIDTH 9 0
BBX 7 7 1 0
VVECTOR 5 7
SWIDTH1 0 -1000
DWIDTH1 0 -8
BITMAP 
7C
C6
06
3E
06
C6
7C
ENDCHAR
STARTCHAR uni042E
ENCODING 1070
SWIDTH 1125 0
DWIDTH 9 0
BBX 7 7 1 0
VVECTOR 5 7
SWIDTH1 0 -1000
DWIDTH1 0 -8
BITMAP 
CC
D6
D6
F6
D6
D6
CC
ENDCHAR
STARTCHAR uni042F
ENCODING 1071
SWIDTH 1125 0
DWIDTH 9 0
BBX 7 7 1 0
VVECTOR 5 7
SWIDTH1 0 -1000
DWIDTH1 0 -8
BITMAP 
3E
66
66
3E
36
66
C6
ENDCHAR
STARTCHAR uni0430
ENCODING 1072
SWIDTH 1125 0
DWIDTH 9 0
BBX 7 5 1 0
VVECTOR 5 7
SWIDTH1 0 -1000
DWIDTH1 0 -8
BITMAP 
78
0C
7C
CC
7E
ENDCHAR
STARTCHAR uni0431
ENCODING 1073
SWIDTH 1125 0
DWIDTH 9 0
BBX 7 6 1 0
VVECTOR 5 7
SWIDTH1 0 -1000
DWIDTH1 0 -8
BITMAP 
0C
78
C0
FC
C6
7C
ENDCHAR
STARTCHAR uni0432
ENCODING 1074
SWIDTH 1125 0
DWIDTH 9 0
BBX 7 5 1 0
VVECTOR 5 7
SWIDTH1 0 -1000
DWIDTH1 0 -8
BITMAP 
F8
CC
FC
C6
FC
ENDCHAR
STARTCHAR uni0433
ENCODING 1075
SWIDTH 1125 0
DWIDTH 9 0
BBX 7 5 1 0
VVECTOR 5 7
SWIDTH1 0 -1000
DWIDTH1 0 -8
BITMAP 
7C
06
7C
C0
7E
ENDCHAR
STARTCHAR uni0434
ENCODING 1076
SWIDTH 1125 0
DWIDTH 9 0
BBX 7 6 1 0
VVECTOR 5 7
SWIDTH1 0 -1000
DWIDTH1 0 -8
BITMAP 
3C
06
3E
66
C6
7C
ENDCHAR
STARTCHAR uni0435
ENCODING 1077
SWIDTH 1125 0
DWIDTH 9 0
BBX 7 5 1 0
VVECTOR 5 7
SWIDTH1 0 -1000
DWIDTH1 0 -8
BITMAP 
7C
C6
FC
C0
7C
ENDCHAR
STARTCHAR uni0436
ENCODING 1078
SWIDTH 1125 0
DWIDTH 9 0
BBX 7 5 1 0
VVECTOR 5 7
SWIDTH1 0 -1000
DWIDTH1 0 -8
BITMAP 
D6
54
38
54
D6
ENDCHAR
STARTCHAR uni0437
ENCODING 1079
SWIDTH 1125 0
DWIDTH 9 0
BBX 7 5 1 0
VVECTOR 5 7
SWIDTH1 0 -1000
DWIDTH1 0 -8
BITMAP 
7C
C6
1C
C6
7C
ENDCHAR
STARTCHAR uni0438
ENCODING 1080
SWIDTH 1125 0
DWIDTH 9 0
BBX 7 5 1 0
VVECTOR 5 7
SWIDTH1 0 -1000
DWIDTH1 0 -8
BITMAP 
C6
CE
D6
E6
C6
ENDCHAR
STARTCHAR uni0439
ENCODING 1081
SWIDTH 1125 0
DWIDTH 9 0
BBX 7 6 1 0
VVECTOR 5 7
SWIDTH1 0 -1000
DWIDTH1 0 -8
BITMAP 
18
C6
CE
D6
E6
C6
ENDCHAR
STARTCHAR uni043A
ENCODING 1082
SWIDTH 1125 0
DWIDTH 9 0
BBX 7 5 1 0
VVECTOR 5 7
SWIDTH1 0 -1000
DWIDTH1 0 -8
BITMAP 
C6
CC
F8
CC
C6
ENDCHAR
STARTCHAR uni043B
ENCODING 1083
SWIDTH 1125 0
DWIDTH 9 0
BBX 7 5 1 0
VVECTOR 5 7
SWIDTH1 0 -1000
DWIDTH1 0 -8
BITMAP 
3E
66
66
66
C6
ENDCHAR
STARTCHAR uni043C
ENCODING 1084
SWIDTH 1125 0
DWIDTH 9 0
BBX 7 5 1 0
VVECTOR 5 7
SWIDTH1 0 -1000
DWIDTH1 0 -8
BITMAP 
C6
EE
D6
C6
C6
ENDCHAR
STARTCHAR uni043D
ENCODING 1085
SWIDTH 1125 0
DWIDTH 9 0
BBX 7 5 1 0
VVECTOR 5 7
SWIDTH1 0 -1000
DWIDTH1 0 -8
BITMAP 
C6
C6
FE
C6
C6
ENDCHAR
STARTCHAR uni043E
ENCODING 1086
SWIDTH 1125 0
DWIDTH 9 0
BBX 7 5 1 0
VVECTOR 5 7
SWIDTH1 0 -1000
DWIDTH1 0 -8
BITMAP 
7C
C6
C6
C6
7C
ENDCHAR
STARTCHAR uni043F
ENCODING 1087
SWIDTH 1125 0
DWIDTH 9 0
BBX 7 5 1 0
VVECTOR 5 7
SWIDTH1 0 -1000
DWIDTH1 0 -8
BITMAP 
FC
C6
C6
C6
C6
ENDCHAR
STARTCHAR uni0440
ENCODING 1088
SWIDTH 1125 0
DWIDTH 9 0
BBX 7 5 1 0
VVECTOR 5 7
SWIDTH1 0 -1000
DWIDTH1 0 -8
BITMAP 
FC
C6
FC
C0
C0
ENDCHAR
STARTCHAR uni0441
ENCODING 1089
SWIDTH 1125 0
DWIDTH 9 0
BBX 6 5 1 0
VVECTOR 4 7
SWIDTH1 0 -1000
DWIDTH1 0 -8
BITMAP 
7C
C0
C0
C0
7C
ENDCHAR
STARTCHAR uni0442
ENCODING 1090
SWIDTH 1125 0
DWIDTH 9 0
BBX 6 5 1 0
VVECTOR 4 7
SWIDTH1 0 -1000
DWIDTH1 0 -8
BITMAP 
FC
30
30
30
30
ENDCHAR
STARTCHAR uni0443
ENCODING 1091
SWIDTH 1125 0
DWIDTH 9 0
BBX 7 6 1 -1
VVECTOR 5 7
SWIDTH1 0 -1000
DWIDTH1 0 -8
BITMAP 
C6
C6
C6
7E
06
7C
ENDCHAR
STARTCHAR uni0444
ENCODING 1092
SWIDTH 1125 0
DWIDTH 9 0
BBX 7 6 1 0
VVECTOR 5 7
SWIDTH1 0 -1000
DWIDTH1 0 -8
BITMAP 
10
7C
D6
D6
7C
10
ENDCHAR
STARTCHAR uni0445
ENCODING 1093
SWIDTH 1125 0
DWIDTH 9 0
BBX 7 5 1 0
VVECTOR 5 7
SWIDTH1 0 -1000
DWIDTH1 0 -8
BITMAP 
C6
6C
38
6C
C6
ENDCHAR
STARTCHAR uni0446
ENCODING 1094
SWIDTH 1125 0
DWIDTH 9 0
BBX 7 6 1 -1
VVECTOR 5 7
SWIDTH1 0 -1000
DWIDTH1 0 -8
BITMAP 
C6
C6
C6
CC
76
02
ENDCHAR
STARTCHAR uni0447
ENCODING 1095
SWIDTH 1125 0
DWIDTH 9 0
BBX 7 5 1 0
VVECTOR 5 7
SWIDTH1 0 -1000
DWIDTH1 0 -8
BITMAP 
C6
C6
7E
06
06
ENDCHAR
STARTCHAR uni0448
ENCODING 1096
SWIDTH 1125 0
DWIDTH 9 0
BBX 7 5 1 0
VVECTOR 5 7
SWIDTH1 0 -1000
DWIDTH1 0 -8
BITMAP 
D6
D6
D6
D6
FE
ENDCHAR
STARTCHAR uni0449
ENCODING 1097
SWIDTH 1125 0
DWIDTH 9 0
BBX 7 6 1 -1
VVECTOR 5 7
SWIDTH1 0 -1000
DWIDTH1 0 -8
BITMAP 
D6
D6
D6
D6
FE
02
ENDCHAR
STARTCHAR uni044A
ENCODING 1098
SWIDTH 1125 0
DWIDTH 9 0
BBX 7 5 1 0
VVECTOR 5 7
SWIDTH1 0 -1000
DWIDTH1 0 -8
BITMAP 
E0
60
7C
66
7C
ENDCHAR
STARTCHAR uni044B
ENCODING 1099
SWIDTH 1125 0
DWIDTH 9 0
BBX 7 5 1 0
VVECTOR 5 7
SWIDTH1 0 -1000
DWIDTH1 0 -8
BITMAP 
C6
C6
F2
CA
F2
ENDCHAR
STARTCHAR uni044C
ENCODING 1100
SWIDTH 1125 0
DWIDTH 9 0
BBX 7 5 1 0
VVECTOR 5 7
SWIDTH1 0 -1000
DWIDTH1 0 -8
BITMAP 
C0
C0
FC
C6
FC
ENDCHAR
STARTCHAR uni044D
ENCODING 1101
SWIDTH 1125 0
DWIDTH 9 0
BBX 7 5 1 0
VVECTOR 5 7
SWIDTH1 0 -1000
DWIDTH1 0 -8
BITMAP 
FC
06
3E
06
FC
ENDCHAR
STARTCHAR uni044E
ENCODING 1102
SWIDTH 1125 0
DWIDTH 9 0
BBX 7 5 1 0
VVECTOR 5 7
SWIDTH1 0 -1000
DWIDTH1 0 -8
BITMAP 
9C
B6
F6
B6
9C
ENDCHAR
STARTCHAR uni044F
ENCODING 1103
SWIDTH 1125 0
DWIDTH 9 0
BBX 7 5 1 0
VVECTOR 5 7
SWIDTH1 0 -1000
DWIDTH1 0 -8
BITMAP 
3E
66
3E
66
C6
ENDCHAR
STARTCHAR uni0451
ENCODING 1105
SWIDTH 1250 0
DWIDTH 10 0
BBX 8 6 1 -1
VVECTOR 5 7
SWIDTH1 0 -1000
DWIDTH1 0 -8
BITMAP 
FF
00
F7
36
36
36
ENDCHAR
STARTCHAR uni2219
ENCODING 8729
SWIDTH 1125 0
DWIDTH 9 0
BBX 7 5 1 2
VVECTOR 5 7
SWIDTH1 0 -1000
DWIDTH1 0 -8
BITMAP 
36
36
36
36
FE
ENDCHAR
STARTCHAR radical
ENCODING 8730
SWIDTH 1000 0
DWIDTH 8 0
BBX 5 5 1 2
VVECTOR 3 7
SWIDTH1 0 -1000
DWIDTH1 0 -8
BITMAP 
18
18
F8
18
F8
ENDCHAR
STARTCHAR approxequal
ENCODING 8776
SWIDTH 1000 0
DWIDTH 8 0
BBX 5 4 1 -1
VVECTOR 3 7
SWIDTH1 0 -1000
DWIDTH1 0 -8
BITMAP 
F8
18
18
18
ENDCHAR
STARTCHAR lessequal
ENCODING 8804
SWIDTH 875 0
DWIDTH 7 0
BBX 5 5 1 2
VVECTOR 4 7
SWIDTH1 0 -1000
DWIDTH1 0 -8
BITMAP 
C0
C0
C0
C0
F8
ENDCHAR
STARTCHAR greaterequal
ENCODING 8805
SWIDTH 1250 0
DWIDTH 10 0
BBX 8 5 1 2
VVECTOR 5 7
SWIDTH1 0 -1000
DWIDTH1 0 -8
BITMAP 
18
18
18
18
FF
ENDCHAR
STARTCHAR integraltp
ENCODING 8992
SWIDTH 1125 0
DWIDTH 9 0
BBX 7 6 1 -1
VVECTOR 5 7
SWIDTH1 0 -1000
DWIDTH1 0 -8
BITMAP 
FE
06
F6
36
36
36
ENDCHAR
STARTCHAR integralbt
ENCODING 8993
SWIDTH 875 0
DWIDTH 7 0
BBX 5 8 1 -1
VVECTOR 4 7
SWIDTH1 0 -1000
DWIDTH1 0 -8
BITMAP 
C0
C0
C0
C0
F8
C0
C0
C0
ENDCHAR
STARTCHAR SF100000
ENCODING 9472
SWIDTH 1000 0
DWIDTH 8 0
BBX 6 7 1 0
VVECTOR 4 7
SWIDTH1 0 -1000
DWIDTH1 0 -8
BITMAP 
30
00
30
60
C0
CC
78
ENDCHAR
STARTCHAR SF110000
ENCODING 9474
SWIDTH 1000 0
DWIDTH 8 0
BBX 6 3 1 1
VVECTOR 4 7
SWIDTH1 0 -1000
DWIDTH1 0 -8
BITMAP 
FC
C0
C0
ENDCHAR
STARTCHAR SF010000
ENCODING 9484
SWIDTH 1000 0
DWIDTH 8 0
BBX 6 3 1 1
VVECTOR 4 7
SWIDTH1 0 -1000
DWIDTH1 0 -8
BITMAP 
FC
0C
0C
ENDCHAR
STARTCHAR SF030000
ENCODING 9488
SWIDTH 1250 0
DWIDTH 10 0
BBX 8 8 1 -1
VVECTOR 5 7
SWIDTH1 0 -1000
DWIDTH1 0 -8
BITMAP 
C3
C6
CC
DE
33
66
CC
0F
ENDCHAR
STARTCHAR SF020000
ENCODING 9492
SWIDTH 1250 0
DWIDTH 10 0
BBX 8 8 1 -1
VVECTOR 5 7
SWIDTH1 0 -1000
DWIDTH1 0 -8
BITMAP 
C3
C6
CC
DB
37
6F
CF
03
ENDCHAR
STARTCHAR SF040000
ENCODING 9496
SWIDTH 625 0
DWIDTH 5 0
BBX 2 7 1 0
VVECTOR 2 7
SWIDTH1 0 -1000
DWIDTH1 0 -8
BITMAP 
C0
C0
00
C0
C0
C0
C0
ENDCHAR
STARTCHAR SF080000
ENCODING 9500
SWIDTH 1250 0
DWIDTH 10 0
BBX 8 5 1 1
VVECTOR 5 7
SWIDTH1 0 -1000
DWIDTH1 0 -8
BITMAP 
33
66
CC
66
33
ENDCHAR
STARTCHAR SF090000
ENCODING 9508
SWIDTH 1250 0
DWIDTH 10 0
BBX 8 5 1 1
VVECTOR 5 7
SWIDTH1 0 -1000
DWIDTH1 0 -8
BITMAP 
CC
66
33
66
CC
ENDCHAR
STARTCHAR SF060000
ENCODING 9516
SWIDTH 750 0
DWIDTH 6 0
BBX 4 8 1 -1
VVECTOR 3 7
SWIDTH1 0 -1000
DWIDTH1 0 -8
BITMAP 
50
A0
50
A0
50
A0
50
A0
ENDCHAR
STARTCHAR SF070000
ENCODING 9524
SWIDTH 1250 0
DWIDTH 10 0
BBX 8 8 1 -1
VVECTOR 5 7
SWIDTH1 0 -1000
DWIDTH1 0 -8
BITMAP 
55
AA
55
AA
55
AA
55
AA
ENDCHAR
STARTCHAR SF050000
ENCODING 9532
SWIDTH 1250 0
DWIDTH 10 0
BBX 8 8 1 -1
VVECTOR 5 7
SWIDTH1 0 -1000
DWIDTH1 0 -8
BITMAP 
DB
77
DB
EE
DB
77
DB
EE
ENDCHAR
STARTCHAR SF430000
ENCODING 9552
SWIDTH 1000 0
DWIDTH 8 0
BBX 6 5 1 2
VVECTOR 4 7
SWIDTH1 0 -1000
DWIDTH1 0 -8
BITMAP 
D8
D8
DC
C0
FC
ENDCHAR
STARTCHAR SF240000
ENCODING 9553
SWIDTH 1000 0
DWIDTH 8 0
BBX 6 6 1 -1
VVECTOR 4 7
SWIDTH1 0 -1000
DWIDTH1 0 -8
BITMAP 
FC
C0
DC
D8
D8
D8
ENDCHAR
STARTCHAR SF510000
ENCODING 9554
SWIDTH 1250 0
DWIDTH 10 0
BBX 8 5 1 2
VVECTOR 5 7
SWIDTH1 0 -1000
DWIDTH1 0 -8
BITMAP 
36
36
F7
00
FF
ENDCHAR
STARTCHAR SF520000
ENCODING 9555
SWIDTH 875 0
DWIDTH 7 0
BBX 5 8 1 -1
VVECTOR 4 7
SWIDTH1 0 -1000
DWIDTH1 0 -8
BITMAP 
F0
F0
F8
C0
F8
F0
F0
F0
ENDCHAR
STARTCHAR SF390000
ENCODING 9556
SWIDTH 1250 0
DWIDTH 10 0
BBX 8 3 1 2
VVECTOR 5 7
SWIDTH1 0 -1000
DWIDTH1 0 -8
BITMAP 
FF
00
FF
ENDCHAR
STARTCHAR SF220000
ENCODING 9557
SWIDTH 1125 0
DWIDTH 9 0
BBX 7 8 1 -1
VVECTOR 5 7
SWIDTH1 0 -1000
DWIDTH1 0 -8
BITMAP 
3C
3C
FE
00
FE
3C
3C
3C
ENDCHAR
STARTCHAR SF210000
ENCODING 9558
SWIDTH 1250 0
DWIDTH 10 0
BBX 8 5 1 2
VVECTOR 5 7
SWIDTH1 0 -1000
DWIDTH1 0 -8
BITMAP 
18
18
FF
00
FF
ENDCHAR
STARTCHAR SF250000
ENCODING 9559
SWIDTH 1250 0
DWIDTH 10 0
BBX 8 5 1 2
VVECTOR 5 7
SWIDTH1 0 -1000
DWIDTH1 0 -8
BITMAP 
36
36
36
36
FF
ENDCHAR
STARTCHAR SF500000
ENCODING 9560
SWIDTH 1250 0
DWIDTH 10 0
BBX 8 6 1 -1
VVECTOR 5 7
SWIDTH1 0 -1000
DWIDTH1 0 -8
BITMAP 
FF
00
FF
18
18
18
ENDCHAR
STARTCHAR SF490000
ENCODING 9561
SWIDTH 1250 0
DWIDTH 10 0
BBX 8 4 1 -1
VVECTOR 5 7
SWIDTH1 0 -1000
DWIDTH1 0 -8
BITMAP 
FF
36
36
36
ENDCHAR
STARTCHAR SF380000
ENCODING 9562
SWIDTH 1000 0
DWIDTH 8 0
BBX 6 5 1 2
VVECTOR 4 7
SWIDTH1 0 -1000
DWIDTH1 0 -8
BITMAP 
D8
D8
D8
D8
FC
ENDCHAR
STARTCHAR SF280000
ENCODING 9563
SWIDTH 875 0
DWIDTH 7 0
BBX 5 5 1 2
VVECTOR 4 7
SWIDTH1 0 -1000
DWIDTH1 0 -8
BITMAP 
C0
C0
F8
C0
F8
ENDCHAR
STARTCHAR SF270000
ENCODING 9564
SWIDTH 875 0
DWIDTH 7 0
BBX 5 6 1 -1
VVECTOR 4 7
SWIDTH1 0 -1000
DWIDTH1 0 -8
BITMAP 
F8
C0
F8
C0
C0
C0
ENDCHAR
STARTCHAR SF260000
ENCODING 9565
SWIDTH 1000 0
DWIDTH 8 0
BBX 6 4 1 -1
VVECTOR 4 7
SWIDTH1 0 -1000
DWIDTH1 0 -8
BITMAP 
FC
D8
D8
D8
ENDCHAR
STARTCHAR SF360000
ENCODING 9566
SWIDTH 1250 0
DWIDTH 10 0
BBX 8 8 1 -1
VVECTOR 5 7
SWIDTH1 0 -1000
DWIDTH1 0 -8
BITMAP 
36
36
36
36
FF
36
36
36
ENDCHAR
STARTCHAR SF370000
ENCODING 9567
SWIDTH 1250 0
DWIDTH 10 0
BBX 8 8 1 -1
VVECTOR 5 7
SWIDTH1 0 -1000
DWIDTH1 0 -8
BITMAP 
18
18
FF
18
FF
18
18
18
ENDCHAR
STARTCHAR SF420000
ENCODING 9568
SWIDTH 1000 0
DWIDTH 8 0
BBX 5 5 1 2
VVECTOR 3 7
SWIDTH1 0 -1000
DWIDTH1 0 -8
BITMAP 
18
18
18
18
F8
ENDCHAR
STARTCHAR SF190000
ENCODING 9569
SWIDTH 875 0
DWIDTH 7 0
BBX 5 4 1 -1
VVECTOR 4 7
SWIDTH1 0 -1000
DWIDTH1 0 -8
BITMAP 
F8
C0
C0
C0
ENDCHAR
STARTCHAR SF200000
ENCODING 9570
SWIDTH 1250 0
DWIDTH 10 0
BBX 8 4 1 -1
VVECTOR 5 7
SWIDTH1 0 -1000
DWIDTH1 0 -8
BITMAP 
FF
FF
FF
FF
ENDCHAR
STARTCHAR SF230000
ENCODING 9571
SWIDTH 1000 0
DWIDTH 8 0
BBX 4 8 1 -1
VVECTOR 2 7
SWIDTH1 0 -1000
DWIDTH1 0 -8
BITMAP 
F0
F0
F0
F0
F0
F0
F0
F0
ENDCHAR
STARTCHAR SF470000
ENCODING 9572
SWIDTH 750 0
DWIDTH 6 0
BBX 4 8 1 -1
VVECTOR 3 7
SWIDTH1 0 -1000
DWIDTH1 0 -8
BITMAP 
F0
F0
F0
F0
F0
F0
F0
F0
ENDCHAR
STARTCHAR SF480000
ENCODING 9573
SWIDTH 1250 0
DWIDTH 10 0
BBX 8 4 1 3
VVECTOR 5 7
SWIDTH1 0 -1000
DWIDTH1 0 -8
BITMAP 
FF
FF
FF
FF
ENDCHAR
STARTCHAR SF410000
ENCODING 9574
SWIDTH 1000 0
DWIDTH 8 0
BBX 5 4 1 3
VVECTOR 3 7
SWIDTH1 0 -1000
DWIDTH1 0 -8
BITMAP 
70
D8
D8
70
ENDCHAR
STARTCHAR SF450000
ENCODING 9575
SWIDTH 625 0
DWIDTH 5 0
BBX 2 2 1 2
VVECTOR 2 7
SWIDTH1 0 -1000
DWIDTH1 0 -8
BITMAP 
C0
C0
ENDCHAR
STARTCHAR SF460000
ENCODING 9576
SWIDTH 625 0
DWIDTH 5 0
BBX 2 1 1 2
VVECTOR 2 7
SWIDTH1 0 -1000
DWIDTH1 0 -8
BITMAP 
C0
ENDCHAR
STARTCHAR SF400000
ENCODING 9577
SWIDTH 1250 0
DWIDTH 10 0
BBX 8 8 1 -1
VVECTOR 5 7
SWIDTH1 0 -1000
DWIDTH1 0 -8
BITMAP 
0F
0C
0C
0C
EC
6C
3C
1C
ENDCHAR
STARTCHAR SF540000
ENCODING 9578
SWIDTH 1000 0
DWIDTH 8 0
BBX 5 5 1 2
VVECTOR 3 7
SWIDTH1 0 -1000
DWIDTH1 0 -8
BITMAP 
F0
D8
D8
D8
D8
ENDCHAR
STARTCHAR SF530000
ENCODING 9579
SWIDTH 875 0
DWIDTH 7 0
BBX 4 5 1 2
VVECTOR 3 7
SWIDTH1 0 -1000
DWIDTH1 0 -8
BITMAP 
E0
30
60
C0
F0
ENDCHAR
STARTCHAR SF440000
ENCODING 9580
SWIDTH 875 0
DWIDTH 7 0
BBX 4 4 1 1
VVECTOR 3 7
SWIDTH1 0 -1000
DWIDTH1 0 -8
BITMAP 
F0
F0
F0
F0
ENDCHAR
STARTCHAR upblock
ENCODING 9600
SWIDTH 625 0
DWIDTH 5 0
BBX 2 8 1 -1
VVECTOR 2 7
SWIDTH1 0 -1000
DWIDTH1 0 -8
BITMAP 
C0
C0
C0
C0
C0
C0
C0
C0
ENDCHAR
STARTCHAR dnblock
ENCODING 9604
SWIDTH 1000 0
DWIDTH 8 0
BBX 5 8 1 -1
VVECTOR 3 7
SWIDTH1 0 -1000
DWIDTH1 0 -8
BITMAP 
18
18
18
18
F8
18
18
18
ENDCHAR
STARTCHAR block
ENCODING 9608
SWIDTH 1000 0
DWIDTH 8 0
BBX 5 8 1 -1
VVECTOR 3 7
SWIDTH1 0 -1000
DWIDTH1 0 -8
BITMAP 
18
18
F8
18
F8
18
18
18
ENDCHAR
STARTCHAR lfblock
ENCODING 9612
SWIDTH 1000 0
DWIDTH 8 0
BBX 6 8 1 -1
VVECTOR 4 7
SWIDTH1 0 -1000
DWIDTH1 0 -8
BITMAP 
3C
3C
3C
3C
FC
3C
3C
3C
ENDCHAR
STARTCHAR rtblock
ENCODING 9616
SWIDTH 1125 0
DWIDTH 9 0
BBX 7 4 1 -1
VVECTOR 5 7
SWIDTH1 0 -1000
DWIDTH1 0 -8
BITMAP 
FE
36
36
36
ENDCHAR
STARTCHAR ltshade
ENCODING 9617
SWIDTH 1000 0
DWIDTH 8 0
BBX 5 6 1 -1
VVECTOR 3 7
SWIDTH1 0 -1000
DWIDTH1 0 -8
BITMAP 
F8
18
F8
18
18
18
ENDCHAR
STARTCHAR shade
ENCODING 9618
SWIDTH 1000 0
DWIDTH 8 0
BBX 6 8 1 -1
VVECTOR 4 7
SWIDTH1 0 -1000
DWIDTH1 0 -8
BITMAP 
3C
3C
FC
0C
FC
3C
3C
3C
ENDCHAR
STARTCHAR dkshade
ENCODING 9619
SWIDTH 750 0
DWIDTH 6 0
BBX 4 8 1 -1
VVECTOR 3 7
SWIDTH1 0 -1000
DWIDTH1 0 -8
BITMAP 
F0
F0
F0
F0
F0
F0
F0
F0
ENDCHAR
STARTCHAR filledbox
ENCODING 9632
SWIDTH 1125 0
DWIDTH 9 0
BBX 7 5 1 2
VVECTOR 5 7
SWIDTH1 0 -1000
DWIDTH1 0 -8
BITMAP 
36
36
F6
06
FE
ENDCHAR
STARTCHAR A
ENCODING 12450
SWIDTH 1500 0
DWIDTH 12 0
BBX 10 7 1 0
VVECTOR 6 7
SWIDTH1 0 -1000
DWIDTH1 0 -8
BITMAP 
FFC0
0380
0400
0800
1000
2000
4000
ENDCHAR
STARTCHAR I
ENCODING 12452
SWIDTH 1250 0
DWIDTH 10 0
BBX 8 7 1 0
VVECTOR 5 7
SWIDTH1 0 -1000
DWIDTH1 0 -8
BITMAP 
03
0C
34
C4
04
04
04
ENDCHAR
STARTCHAR U
ENCODING 12454
SWIDTH 1500 0
DWIDTH 12 0
BBX 10 7 1 0
VVECTOR 6 7
SWIDTH1 0 -1000
DWIDTH1 0 -8
BITMAP 
0800
FFC0
8040
0180
0600
1800
6000
ENDCHAR
STARTCHAR E
ENCODING 12456
SWIDTH 1500 0
DWIDTH 12 0
BBX 10 6 1 0
VVECTOR 6 7
SWIDTH1 0 -1000
DWIDTH1 0 -8
BITMAP 
3F80
0400
0400
0400
0400
FFC0
ENDCHAR
STARTCHAR O
ENCODING 12458
SWIDTH 1500 0
DWIDTH 12 0
BBX 10 7 1 0
VVECTOR 6 7
SWIDTH1 0 -1000
DWIDTH1 0 -8
BITMAP 
0100
FFC0
0300
0D00
3100
C300
0100
ENDCHAR
STARTCHAR KA
ENCODING 12459
SWIDTH 1500 0
DWIDTH 12 0
BBX 10 7 1 0
VVECTOR 6 7
SWIDTH1 0 -1000
DWIDTH1 0 -8
BITMAP 
0400
FFC0
0840
0840
1040
2280
4100
ENDCHAR
STARTCHAR KI
ENCODING 12461
SWIDTH 1125 0
DWIDTH 9 0
BBX 7 7 1 0
VVECTOR 5 7
SWIDTH1 0 -1000
DWIDTH1 0 -8
BITMAP 
A0
44
A8
10
28
44
02
ENDCHAR
STARTCHAR KU
ENCODING 12463
SWIDTH 1500 0
DWIDTH 12 0
BBX 10 7 1 0
VVECTOR 6 7
SWIDTH1 0 -1000
DWIDTH1 0 -8
BITMAP 
1000
3FC0
4040
8180
0600
1800
6000
ENDCHAR
STARTCHAR KE
ENCODING 12465
SWIDTH 1500 0
DWIDTH 12 0
BBX 10 7 1 0
VVECTOR 6 7
SWIDTH1 0 -1000
DWIDTH1 0 -8
BITMAP 
1000
3FC0
4200
8400
0800
1000
2000
ENDCHAR
STARTCHAR KO
ENCODING 12467
SWIDTH 1500 0
DWIDTH 12 0
BBX 10 6 1 0
VVECTOR 6 7
SWIDTH1 0 -1000
DWIDTH1 0 -8
BITMAP 
FFC0
0040
0040
0040
0040
FF80
ENDCHAR
STARTCHAR SA
ENCODING 12469
SWIDTH 1500 0
DWIDTH 12 0
BBX 10 7 1 0
VVECTOR 6 7
SWIDTH1 0 -1000
DWIDTH1 0 -8
BITMAP 
2100
FFC0
2100
0100
0200
0400
1000
ENDCHAR
STARTCHAR uni30B7
ENCODING 12471
SWIDTH 1625 0
DWIDTH 13 0
BBX 11 7 1 0
VVECTOR 7 7
SWIDTH1 0 -1000
DWIDTH1 0 -8
BITMAP 
2020
9040
4080
0300
0C00
3000
C000
ENDCHAR
STARTCHAR SU
ENCODING 12473
SWIDTH 1250 0
DWIDTH 10 0
BBX 8 7 1 0
VVECTOR 5 7
SWIDTH1 0 -1000
DWIDTH1 0 -8
BITMAP 
FF
01
02
0C
34
62
81
ENDCHAR
STARTCHAR SE
ENCODING 12475
SWIDTH 1500 0
DWIDTH 12 0
BBX 10 7 1 0
VVECTOR 6 7
SWIDTH1 0 -1000
DWIDTH1 0 -8
BITMAP 
2000
2000
FFC0
2080
2000
2000
1F80
ENDCHAR
STARTCHAR SO
ENCODING 12477
SWIDTH 1375 0
DWIDTH 11 0
BBX 9 7 1 0
VVECTOR 6 7
SWIDTH1 0 -1000
DWIDTH1 0 -8
BITMAP 
8080
8080
0100
0200
0C00
3000
C000
ENDCHAR
STARTCHAR TA
ENCODING 12479
SWIDTH 1375 0
DWIDTH 11 0
BBX 9 7 1 0
VVECTOR 6 7
SWIDTH1 0 -1000
DWIDTH1 0 -8
BITMAP 
1000
3F80
4100
A200
1C00
3000
C000
ENDCHAR
STARTCHAR uni30C1
ENCODING 12481
SWIDTH 1500 0
DWIDTH 12 0
BBX 10 7 1 0
VVECTOR 6 7
SWIDTH1 0 -1000
DWIDTH1 0 -8
BITMAP 
0180
7E00
0400
FFC0
0400
0400
1800
ENDCHAR
STARTCHAR uni30C4
ENCODING 12484
SWIDTH 1375 0
DWIDTH 11 0
BBX 9 7 1 0
VVECTOR 6 7
SWIDTH1 0 -1000
DWIDTH1 0 -8
BITMAP 
A080
A080
0100
0200
0C00
3000
C000
ENDCHAR
STARTCHAR TE
ENCODING 12486
SWIDTH 1500 0
DWIDTH 12 0
BBX 10 7 1 0
VVECTOR 6 7
SWIDTH1 0 -1000
DWIDTH1 0 -8
BITMAP 
3F00
0000
FFC0
0400
0400
0800
3000
ENDCHAR
STARTCHAR TO
ENCODING 12488
SWIDTH 750 0
DWIDTH 6 0
BBX 4 7 1 0
VVECTOR 3 7
SWIDTH1 0 -1000
DWIDTH1 0 -8
BITMAP 
80
80
C0
A0
90
80
80
ENDCHAR
STARTCHAR NA
ENCODING 12490
SWIDTH 1500 0
DWIDTH 12 0
BBX 10 7 1 0
VVECTOR 6 7
SWIDTH1 0 -1000
DWIDTH1 0 -8
BITMAP 
0400
FFC0
0400
0400
0800
1000
6000
ENDCHAR
STARTCHAR NI
ENCODING 12491
SWIDTH 1500 0
DWIDTH 12 0
BBX 10 4 1 1
VVECTOR 6 7
SWIDTH1 0 -1000
DWIDTH1 0 -8
BITMAP 
3F00
0000
0000
FFC0
ENDCHAR
STARTCHAR NU
ENCODING 12492
SWIDTH 1500 0
DWIDTH 12 0
BBX 10 7 1 0
VVECTOR 6 7
SWIDTH1 0 -1000
DWIDTH1 0 -8
BITMAP 
FFC0
0040
1080
0B00
0C00
3200
C100
ENDCHAR
STARTCHAR NE
ENCODING 12493
SWIDTH 1500 0
DWIDTH 12 0
BBX 10 7 1 0
VVECTOR 6 7
SWIDTH1 0 -1000
DWIDTH1 0 -8
BITMAP 
0400
FFC0
0080
0700
3F00
C4C0
0400
ENDCHAR
STARTCHAR NO
ENCODING 12494
SWIDTH 1375 0
DWIDTH 11 0
BBX 9 7 1 0
VVECTOR 6 7
SWIDTH1 0 -1000
DWIDTH1 0 -8
BITMAP 
0080
0080
0100
0200
0C00
3000
C000
ENDCHAR
STARTCHAR HA
ENCODING 12495
SWIDTH 1375 0
DWIDTH 11 0
BBX 9 4 1 1
VVECTOR 6 7
SWIDTH1 0 -1000
DWIDTH1 0 -8
BITMAP 
1200
2100
4080
8000
ENDCHAR
STARTCHAR HI
ENCODING 12498
SWIDTH 1250 0
DWIDTH 10 0
BBX 8 7 1 0
VVECTOR 5 7
SWIDTH1 0 -1000
DWIDTH1 0 -8
BITMAP 
80
8E
F0
80
80
80
7F
ENDCHAR
STARTCHAR uni30D5
ENCODING 12501
SWIDTH 1250 0
DWIDTH 10 0
BBX 8 7 1 0
VVECTOR 5 7
SWIDTH1 0 -1000
DWIDTH1 0 -8
BITMAP 
FF
01
01
02
0C
30
C0
ENDCHAR
STARTCHAR HE
ENCODING 12504
SWIDTH 1500 0
DWIDTH 12 0
BBX 10 4 1 1
VVECTOR 6 7
SWIDTH1 0 -1000
DWIDTH1 0 -8
BITMAP 
3000
4C00
8300
00C0
ENDCHAR
STARTCHAR HO
ENCODING 12507
SWIDTH 1500 0
DWIDTH 12 0
BBX 10 7 1 0
VVECTOR 6 7
SWIDTH1 0 -1000
DWIDTH1 0 -8
BITMAP 
0400
FFC0
0400
2500
4480
8C40
0400
ENDCHAR
STARTCHAR MA
ENCODING 12510
SWIDTH 1500 0
DWIDTH 12 0
BBX 10 6 1 0
VVECTOR 6 7
SWIDTH1 0 -1000
DWIDTH1 0 -8
BITMAP 
FFC0
0080
0100
0A00
0400
0200
ENDCHAR
STARTCHAR MI
ENCODING 12511
SWIDTH 1000 0
DWIDTH 8 0
BBX 6 7 1 0
VVECTOR 4 7
SWIDTH1 0 -1000
DWIDTH1 0 -8
BITMAP 
F0
0C
E0
1C
00
E0
1C
ENDCHAR
STARTCHAR MU
ENCODING 12512
SWIDTH 1500 0
DWIDTH 12 0
BBX 10 7 1 0
VVECTOR 6 7
SWIDTH1 0 -1000
DWIDTH1 0 -8
BITMAP 
0400
0800
1000
2000
4100
FF80
0040
ENDCHAR
STARTCHAR ME
ENCODING 12513
SWIDTH 1375 0
DWIDTH 11 0
BBX 9 7 1 0
VVECTOR 6 7
SWIDTH1 0 -1000
DWIDTH1 0 -8
BITMAP 
0080
0100
2200
1400
0800
3400
C200
ENDCHAR
STARTCHAR MO
ENCODING 12514
SWIDTH 1500 0
DWIDTH 12 0
BBX 10 7 1 0
VVECTOR 6 7
SWIDTH1 0 -1000
DWIDTH1 0 -8
BITMAP 
3F00
0800
FFC0
0800
0800
0800
0780
ENDCHAR
STARTCHAR YA
ENCODING 12516
SWIDTH 1500 0
DWIDTH 12 0
BBX 8 7 1 0
VVECTOR 4 7
SWIDTH1 0 -1000
DWIDTH1 0 -8
BITMAP 
83
4D
70
90
08
04
02
ENDCHAR
STARTCHAR YU
ENCODING 12518
SWIDTH 1500 0
DWIDTH 12 0
BBX 10 5 1 1
VVECTOR 6 7
SWIDTH1 0 -1000
DWIDTH1 0 -8
BITMAP 
3F00
0100
0100
0100
FFC0
ENDCHAR
STARTCHAR YO
ENCODING 12520
SWIDTH 1500 0
DWIDTH 12 0
BBX 10 5 1 1
VVECTOR 6 7
SWIDTH1 0 -1000
DWIDTH1 0 -8
BITMAP 
3F00
0200
0400
0400
FFC0
ENDCHAR
STARTCHAR RA
ENCODING 12521
SWIDTH 1500 0
DWIDTH 12 0
BBX 10 7 1 0
VVECTOR 6 7
SWIDTH1 0 -1000
DWIDTH1 0 -8
BITMAP 
3F00
0000
FFC0
8040
0180
0600
1800
ENDCHAR
STARTCHAR RI
ENCODING 12522
SWIDTH 875 0
DWIDTH 7 0
BBX 5 7 1 0
VVECTOR 4 7
SWIDTH1 0 -1000
DWIDTH1 0 -8
BITMAP 
88
88
88
88
10
20
C0
ENDCHAR
STARTCHAR RU
ENCODING 12523
SWIDTH 1500 0
DWIDTH 12 0
BBX 10 7 1 0
VVECTOR 6 7
SWIDTH1 0 -1000
DWIDTH1 0 -8
BITMAP 
1400
1400
1400
1440
2480
4500
8600
ENDCHAR
STARTCHAR RE
ENCODING 12524
SWIDTH 1250 0
DWIDTH 10 0
BBX 8 7 1 0
VVECTOR 5 7
SWIDTH1 0 -1000
DWIDTH1 0 -8
BITMAP 
80
80
80
83
8C
B0
C0
ENDCHAR
STARTCHAR RO
ENCODING 12525
SWIDTH 1375 0
DWIDTH 11 0
BBX 9 5 1 1
VVECTOR 6 7
SWIDTH1 0 -1000
DWIDTH1 0 -8
BITMAP 
FF80
8080
8080
8080
FF80
ENDCHAR
STARTCHAR WA
ENCODING 12527
SWIDTH 1500 0
DWIDTH 12 0
BBX 10 7 1 0
VVECTOR 6 7
SWIDTH1 0 -1000
DWIDTH1 0 -8
BITMAP 
FFC0
8040
0080
0100
0200
0C00
3000
ENDCHAR
STARTCHAR WI
ENCODING 12528
SWIDTH 1500 0
DWIDTH 12 0
BBX 10 7 1 0
VVECTOR 6 7
SWIDTH1 0 -1000
DWIDTH1 0 -8
BITMAP 
0400
3F80
1400
1400
FFC0
0400
0400
ENDCHAR
STARTCHAR WE
ENCODING 12529
SWIDTH 1375 0
DWIDTH 11 0
BBX 9 7 1 0
VVECTOR 6 7
SWIDTH1 0 -1000
DWIDTH1 0 -8
BITMAP 
FF80
0080
0080
FF00
0100
0100
FF00
ENDCHAR
STARTCHAR WO
ENCODING 12530
SWIDTH 1500 0
DWIDTH 12 0
BBX 10 7 1 0
VVECTOR 6 7
SWIDTH1 0 -1000
DWIDTH1 0 -8
BITMAP 
FFC0
0040
0080
FF00
0C00
3000
C000
ENDCHAR
STARTCHAR N
ENCODING 12531
SWIDTH 1375 0
DWIDTH 11 0
BBX 9 7 1 0
VVECTOR 6 7
SWIDTH1 0 -1000
DWIDTH1 0 -8
BITMAP 
0080
8080
4100
0200
0C00
3000
C000
ENDCHAR
ENDFONT
